<?xml version="1.0" ?><svg height="128" id="svg8" version="1.1" viewBox="0 0 33.866666 33.866668" width="128" xmlns="http://www.w3.org/2000/svg" xmlns:cc="http://creativecommons.org/ns#" xmlns:dc="http://purl.org/dc/elements/1.1/" xmlns:inkscape="http://www.inkscape.org/namespaces/inkscape" xmlns:rdf="http://www.w3.org/1999/02/22-rdf-syntax-ns#" xmlns:sodipodi="http://sodipodi.sourceforge.net/DTD/sodipodi-0.dtd" xmlns:svg="http://www.w3.org/2000/svg" xmlns:xlink="http://www.w3.org/1999/xlink"><defs id="defs2"><linearGradient id="linearGradient2202"><stop id="stop2198" offset="0" style="stop-color:#f6f600;stop-opacity:1;"/><stop id="stop2200" offset="1" style="stop-color:#f69134;stop-opacity:1"/></linearGradient><linearGradient gradientTransform="matrix(0.39352029,0,0,0.39352035,-185.27183,93.82285)" gradientUnits="userSpaceOnUse" id="linearGradient3363" x1="12.262755" x2="12.262755" xlink:href="#linearGradient2202" y1="9.0164375" y2="14.680936"/><clipPath clipPathUnits="userSpaceOnUse" id="clipPath3457"><rect height="58.93293" id="rect3459" rx="2.6458333" ry="2.6458333" style="fill:#1a1a1a;stroke-width:0.264583;stroke-linecap:square;stroke-dasharray:0.264583, 1.05833;paint-order:fill markers stroke" width="61.739258" x="-262.11121" y="114.49826"/></clipPath></defs><g id="layer1"><path d="M 32.416016 8.96875 C 16.673345 8.96875 4 21.644045 4 37.386719 L 4 90.583984 C 4 106.32666 16.673345 119 32.416016 119 L 94.583984 119 C 110.32666 119 123 106.32666 123 90.583984 L 123 59.25 C 123 53.709999 118.54 49.25 113 49.25 L 98.847656 49.25 L 98.847656 37.386719 C 98.847656 21.644045 86.17236 8.96875 70.429688 8.96875 L 32.416016 8.96875 z M 24.621094 34 L 83.050781 34 C 86.441331 34 89.169922 36.730543 89.169922 40.121094 C 89.169922 43.511647 86.441331 46.240234 83.050781 46.240234 L 24.621094 46.240234 C 21.230542 46.240234 18.5 43.511647 18.5 40.121094 C 18.5 36.730543 21.230542 34 24.621094 34 z M 24.621094 82 L 102.87891 82 C 106.26946 82 109 84.730544 109 88.121094 C 109 91.511647 106.26946 94.240234 102.87891 94.240234 L 24.621094 94.240234 C 21.230542 94.240234 18.5 91.511647 18.5 88.121094 C 18.5 84.730544 21.230542 82 24.621094 82 z " id="path10792" style="fill:#000000;fill-opacity:1;stroke-width:0.999999;stroke-linecap:square;stroke-dasharray:0.999999, 3.99998999999999993;paint-order:fill markers stroke" transform="scale(0.26458333)"/></g></svg>